<?xml version="1.0" encoding="UTF-8" standalone="no"?>
<!-- Created with Fritzing (http://www.fritzing.org/) -->

<svg
   xmlns:dc="http://purl.org/dc/elements/1.1/"
   xmlns:cc="http://creativecommons.org/ns#"
   xmlns:rdf="http://www.w3.org/1999/02/22-rdf-syntax-ns#"
   xmlns:svg="http://www.w3.org/2000/svg"
   xmlns="http://www.w3.org/2000/svg"
   xmlns:sodipodi="http://sodipodi.sourceforge.net/DTD/sodipodi-0.dtd"
   xmlns:inkscape="http://www.inkscape.org/namespaces/inkscape"
   version="1.2"
   height="1.84896in"
   width="3.14813in"
   x="0in"
   y="0in"
   viewBox="0 0 226.665 133.125"
   id="svg34210"
   inkscape:version="0.91 r13725"
   sodipodi:docname="neje_vertical_copper_bottom_mirror_to_mill.svg">
  <metadata
     id="metadata34667">
    <rdf:RDF>
      <cc:Work
         rdf:about="">
        <dc:format>image/svg+xml</dc:format>
        <dc:type
           rdf:resource="http://purl.org/dc/dcmitype/StillImage" />
        <dc:title></dc:title>
      </cc:Work>
    </rdf:RDF>
  </metadata>
  <defs
     id="defs34665" />
  <sodipodi:namedview
     pagecolor="#ffffff"
     bordercolor="#666666"
     borderopacity="1"
     objecttolerance="10"
     gridtolerance="10"
     guidetolerance="10"
     inkscape:pageopacity="0"
     inkscape:pageshadow="2"
     inkscape:window-width="640"
     inkscape:window-height="480"
     id="namedview34663"
     showgrid="false"
     inkscape:zoom="5.2522017"
     inkscape:cx="26.27928"
     inkscape:cy="100.96372"
     inkscape:current-layer="svg34210" />
  <rect
     style="fill:none;fill-opacity:0.5;stroke:#000000;stroke-width:0.5"
     y="0.28799999"
     x="-226.377"
     id="boardoutline"
     width="226.089"
     height="132.549"
     transform="scale(-1,1)" />
  <path
     style="color:#000000;font-style:normal;font-variant:normal;font-weight:normal;font-stretch:normal;font-size:medium;line-height:normal;font-family:sans-serif;text-indent:0;text-align:start;text-decoration:none;text-decoration-line:none;text-decoration-style:solid;text-decoration-color:#000000;letter-spacing:normal;word-spacing:normal;text-transform:none;direction:ltr;block-progression:tb;writing-mode:lr-tb;baseline-shift:baseline;text-anchor:start;white-space:normal;clip-rule:nonzero;display:inline;overflow:visible;visibility:visible;opacity:1;isolation:auto;mix-blend-mode:normal;color-interpolation:sRGB;color-interpolation-filters:linearRGB;solid-color:#000000;solid-opacity:1;fill:none;fill-opacity:1;fill-rule:nonzero;stroke:#000000;stroke-width:0.15999985;stroke-linecap:round;stroke-linejoin:miter;stroke-miterlimit:4;stroke-dasharray:none;stroke-dashoffset:0;stroke-opacity:1;color-rendering:auto;image-rendering:auto;shape-rendering:auto;text-rendering:auto;enable-background:accumulate"
     d="m 170.62695,1.7558594 a 1.1339706,1.1339706 0 0 0 -0.15429,0.013672 L 49.96875,2.28125 A 1.1339706,1.1339706 0 0 0 49.25,2.4160156 1.1339706,1.1339706 0 0 0 49.164062,2.46875 1.1339706,1.1339706 0 0 0 48.722656,3.0175781 L 40.710938,17.28125 c -0.149764,-0.02201 -0.284038,-0.08984 -0.439454,-0.08984 -1.74607,0 -3.185546,1.439477 -3.185546,3.185547 0,1.74607 1.439476,3.185547 3.185546,3.185547 1.746071,0 3.185547,-1.439477 3.185547,-3.185547 0,-0.763664 -0.309635,-1.442481 -0.765625,-1.994141 L 50.464844,4.5488281 170.12109,4.0390625 179.00977,14.6875 l -9.51368,7.814453 c -0.46356,-0.264793 -0.97015,-0.457031 -1.53711,-0.457031 -1.74607,0 -3.18554,1.439477 -3.18554,3.185547 0,1.74607 1.43947,3.185547 3.18554,3.185547 1.74607,0 3.18555,-1.439477 3.18555,-3.185547 0,-0.348126 -0.0957,-0.669583 -0.20117,-0.984375 l 10.24805,-8.414063 a 1.1339706,1.1339706 0 0 0 0.55664,-0.853515 1.1339706,1.1339706 0 0 0 0.006,-0.05859 1.1339706,1.1339706 0 0 0 0.002,-0.113281 1.1339706,1.1339706 0 0 0 -0.39258,-0.835938 L 171.63086,2.3105469 a 1.1339706,1.1339706 0 0 0 -0.45898,-0.4199219 1.1339706,1.1339706 0 0 0 -0.0586,-0.027344 1.1339706,1.1339706 0 0 0 -0.0566,-0.025391 1.1339706,1.1339706 0 0 0 -0.42969,-0.082031 z M 61.853516,6.4472656 a 1.1339706,1.1339706 0 0 0 -0.792969,0.3398438 1.1339706,1.1339706 0 0 0 -0.0098,0.00977 1.1339706,1.1339706 0 0 0 -0.01563,0.017578 1.1339706,1.1339706 0 0 0 -0.298828,0.9570313 l 0,9.6523436 c -1.190162,0.463629 -2.050781,1.608403 -2.050781,2.953125 0,1.74607 1.439477,3.185547 3.185547,3.185547 1.74607,0 3.185547,-1.439477 3.185547,-3.185547 0,-1.345521 -0.861467,-2.492005 -2.052735,-2.955078 l 0,-8.6914062 93.650394,0 8.37695,8.0585932 c -0.16472,0.382961 -0.25781,0.802191 -0.25781,1.242188 0,1.74607 1.43947,3.185547 3.18554,3.185547 1.74607,0 3.18555,-1.439477 3.18555,-3.185547 0,-1.74607 -1.43948,-3.185547 -3.18555,-3.185547 -0.48212,0 -0.92828,0.128538 -1.33984,0.324219 l -8.60742,-8.2812501 a 1.1339706,1.1339706 0 0 0 -0.48828,-0.3554688 1.1339706,1.1339706 0 0 0 -0.002,0 1.1339706,1.1339706 0 0 0 -0.0137,-0.00586 1.1339706,1.1339706 0 0 0 -0.55469,-0.064453 l -94.902339,0 a 1.1339706,1.1339706 0 0 0 -0.197265,-0.015625 z m 22.101562,4.2890624 a 1.1339706,1.1339706 0 0 0 -0.646484,0.246094 1.1339706,1.1339706 0 0 0 -0.07227,0.0625 1.1339706,1.1339706 0 0 0 -0.07617,0.07617 A 1.1339706,1.1339706 0 0 0 82.869141,12 l -0.34375,5.384766 c -1.283316,0.412188 -2.240235,1.58044 -2.240235,2.992187 0,1.74607 1.439477,3.185547 3.185547,3.185547 1.74607,0 3.185547,-1.439477 3.185547,-3.185547 0,-1.272451 -0.774648,-2.366563 -1.865234,-2.875 l 0.283203,-4.445312 22.337891,0.798828 15.81055,24.6875 0.0762,15.300781 a 1.1339706,1.1339706 0 0 0 0.33203,1.005859 1.1339706,1.1339706 0 0 0 0.006,0.0059 1.1339706,1.1339706 0 0 0 0.008,0.0059 1.1339706,1.1339706 0 0 0 0.96875,0.304688 l 17.24024,0 c 0.46362,1.190161 1.6084,2.050781 2.95312,2.050781 1.34472,0 2.4895,-0.86062 2.95313,-2.050781 l 60.44531,0 c 0.46363,1.190161 1.6084,2.050781 2.95312,2.050781 1.74607,0 3.18555,-1.439477 3.18555,-3.185547 0,-1.74607 -1.43948,-3.185547 -3.18555,-3.185547 -1.34472,0 -2.48949,0.86062 -2.95312,2.050781 l -60.44531,0 c -0.46363,-1.190161 -1.60841,-2.050781 -2.95313,-2.050781 -1.34472,0 -2.4895,0.86062 -2.95312,2.050781 l -16.29297,0 -0.0723,-14.554687 a 1.1339706,1.1339706 0 0 0 -0.0469,-0.470703 1.1339706,1.1339706 0 0 0 -0.002,-0.0039 1.1339706,1.1339706 0 0 0 -0.004,-0.0098 1.1339706,1.1339706 0 0 0 -0.20703,-0.388672 1.1339706,1.1339706 0 0 0 -0.004,-0.0039 L 109.09766,12.285156 a 1.1339706,1.1339706 0 0 0 -0.5,-0.541015 1.1339706,1.1339706 0 0 0 -0.002,0 1.1339706,1.1339706 0 0 0 -0.0332,-0.01563 1.1339706,1.1339706 0 0 0 -0.6582,-0.123047 L 84.234375,10.757812 a 1.1339706,1.1339706 0 0 0 -0.279297,-0.02148 z m 17.650392,4.109375 c -1.746072,-1e-6 -3.185548,1.439476 -3.185548,3.185547 0,0.359141 0.09507,0.692263 0.207031,1.015625 l -8.830078,7.396484 -23.277344,0 1.933594,-3.007812 c 0.206533,0.04281 0.398861,0.126953 0.617187,0.126953 1.746071,0 3.1875,-1.439477 3.1875,-3.185547 0,-1.74607 -1.441429,-3.185547 -3.1875,-3.185547 -1.74607,0 -3.185546,1.439477 -3.185546,3.185547 0,0.69561 0.274804,1.309219 0.660156,1.835938 l -2.96875,4.61914 a 1.1339706,1.1339706 0 0 0 -0.21875,1.109375 1.1339706,1.1339706 0 0 0 0.0918,0.207032 1.1339706,1.1339706 0 0 0 0.05469,0.08594 1.1339706,1.1339706 0 0 0 0.0059,0.0098 1.1339706,1.1339706 0 0 0 1.099609,0.466797 l 25.445313,0 a 1.1339706,1.1339706 0 0 0 0.488281,-0.04492 1.1339706,1.1339706 0 0 0 0.07813,-0.0293 1.1339706,1.1339706 0 0 0 0.05859,-0.02344 1.1339706,1.1339706 0 0 0 0.371093,-0.263672 l 9.042969,-7.572265 c 0.45734,0.255463 0.95562,0.439453 1.51172,0.439453 1.74607,0 3.1875,-1.439477 3.1875,-3.185547 0,-1.74607 -1.44143,-3.185547 -3.1875,-3.185547 z m 43.20117,0 c -1.74607,0 -3.18555,1.439477 -3.18555,3.185547 0,0.472652 0.12008,0.913077 0.3086,1.318359 l -6.67188,6.826172 a 1.1339706,1.1339706 0 0 0 -0.46093,0.945313 1.1339706,1.1339706 0 0 0 0,0.002 1.1339706,1.1339706 0 0 0 0.4707,0.904297 l 10.5,10.5 a 1.1339706,1.1339706 0 0 0 0.45117,0.351562 1.1339706,1.1339706 0 0 0 0.0527,0.02148 1.1339706,1.1339706 0 0 0 0.56446,0.07227 l 39.0625,0 a 1.1339706,1.1339706 0 0 0 0.53125,-0.06641 1.1339706,1.1339706 0 0 0 0.42773,-0.267578 1.1339706,1.1339706 0 0 0 0.004,-0.0039 l 22.71094,-17.908204 c 0.47525,0.283283 0.99792,0.490235 1.58593,0.490235 1.34473,0 2.4895,-0.86062 2.95313,-2.050781 l 6.93945,0 0,42.578125 -51.85351,54.154299 c -0.0327,-0.014 -0.0723,-0.0105 -0.10547,-0.0234 l 0,-17.304688 a 1.1339706,1.1339706 0 0 0 -0.32422,-1.005859 1.1339706,1.1339706 0 0 0 -0.008,-0.0078 1.1339706,1.1339706 0 0 0 -0.008,-0.0078 1.1339706,1.1339706 0 0 0 -0.0117,-0.0098 1.1339706,1.1339706 0 0 0 -0.96093,-0.298828 l -45.56055,0 a 1.1339706,1.1339706 0 0 0 -0.5918,0.08203 1.1339706,1.1339706 0 0 0 -0.01,0.0039 1.1339706,1.1339706 0 0 0 -0.0293,0.01367 1.1339706,1.1339706 0 0 0 -0.44531,0.351562 l -18.24414,18.244144 c -0.39786,-0.18032 -0.83136,-0.29102 -1.29297,-0.29102 -0.42895,0 -0.83771,0.0911 -1.21289,0.24805 L 92.875,107.91992 c 0.17093,-0.38387 0.478516,-0.69877 0.478516,-1.14258 0,-1.7063 -1.408929,-3.11328 -3.115235,-3.11328 -1.706305,0 -3.113281,1.40698 -3.113281,3.11328 0,1.19699 0.800161,2.04625 1.802734,2.56641 l -0.259765,3.87109 c -1.311378,0.40857 -2.292969,1.59374 -2.292969,3.03125 0,1.36516 0.877159,2.52499 2.087891,2.99024 l 0,8.82031 -54.478516,0 0.208984,-61.521484 c 1.196049,-0.460654 2.064453,-1.608059 2.064453,-2.957031 0,-1.74607 -1.441429,-3.1875 -3.1875,-3.1875 -1.74607,0 -3.185546,1.44143 -3.185546,3.1875 0,1.341272 0.855632,2.485156 2.041015,2.951172 l -0.208984,61.519533 -10.208985,-0.0664 c -0.458778,-1.19972 -1.605407,-2.07031 -2.957031,-2.07031 -1.74607,0 -3.1875,1.43948 -3.1875,3.18555 0,1.74607 1.44143,3.18554 3.1875,3.18554 1.33862,0 2.483338,-0.85149 2.951172,-2.0332 l 11.150391,0.0723 a 1.1339706,1.1339706 0 0 0 0.382812,0.002 l 56.369141,0 a 1.1339706,1.1339706 0 0 0 0.927734,-0.25586 1.1339706,1.1339706 0 0 0 0.0078,-0.006 1.1339706,1.1339706 0 0 0 0.02734,-0.0254 1.1339706,1.1339706 0 0 0 0.05469,-0.0527 1.1339706,1.1339706 0 0 0 0.308594,-0.98047 l 0,-9.76758 c 1.210816,-0.4652 2.08789,-1.62502 2.08789,-2.99024 0,-1.28736 -0.783209,-2.39429 -1.886718,-2.9082 l 0.261718,-3.8457 c 0.01149,-0.004 0.02177,-0.009 0.0332,-0.0137 l 7.533204,7.98828 c -0.203423,0.41813 -0.339844,0.87108 -0.339844,1.36328 0,1.74607 1.439476,3.1875 3.185548,3.1875 1.74607,0 3.1875,-1.44143 3.1875,-3.1875 0,-0.4607 -0.11137,-0.89378 -0.29102,-1.29102 l 18.03125,-18.031248 44.29102,0 0,16.369138 c -1.19016,0.46363 -2.05078,1.60841 -2.05078,2.95313 0,1.74607 1.43947,3.1875 3.18554,3.1875 1.74607,0 3.18555,-1.44143 3.18555,-3.1875 0,-0.48431 -0.12882,-0.93271 -0.32617,-1.3457 l 52.07812,-54.386724 a 1.1339706,1.1339706 0 0 0 0.34766,-0.476562 1.1339706,1.1339706 0 0 0 0.006,-0.01367 1.1339706,1.1339706 0 0 0 0.0684,-0.56836 l 0,-43.828124 a 1.1339706,1.1339706 0 0 0 -0.32422,-0.990235 1.1339706,1.1339706 0 0 0 -0.008,-0.0078 1.1339706,1.1339706 0 0 0 -0.008,-0.0078 1.1339706,1.1339706 0 0 0 -0.0117,-0.0098 1.1339706,1.1339706 0 0 0 -0.95703,-0.298828 l -7.89844,0 c -0.46363,-1.190161 -1.6084,-2.050781 -2.95313,-2.050781 -1.74607,0 -3.18554,1.439477 -3.18554,3.185547 0,0.325297 0.0949,0.623215 0.1875,0.919922 l -22.51172,17.751953 -38.49805,0 -9.61328,-9.613281 6.00586,-6.144532 c 0.38927,0.171195 0.81459,0.271485 1.26367,0.271485 1.74607,0 3.18555,-1.439477 3.18555,-3.185547 0,-1.74607 -1.43948,-3.185547 -3.18555,-3.185547 z m -43.20117,2.267578 c 0.52051,0 0.91992,0.397463 0.91992,0.917969 0,0.520506 -0.39941,0.917969 -0.91992,0.917969 -0.52051,0 -0.91797,-0.397462 -0.91797,-0.917969 0,-0.520507 0.39746,-0.917969 0.91797,-0.917969 z m 43.20117,0 c 0.52051,0 0.91797,0.397463 0.91797,0.917969 0,0.520506 -0.39746,0.917969 -0.91797,0.917969 -0.52051,0 -0.91797,-0.397463 -0.91797,-0.917969 0,-0.520506 0.39746,-0.917969 0.91797,-0.917969 z m 23.15234,0 c 0.52051,0 0.91797,0.397463 0.91797,0.917969 0,0.520506 -0.39746,0.917969 -0.91797,0.917969 -0.5205,0 -0.91796,-0.397463 -0.91796,-0.917969 0,-0.520506 0.39746,-0.917969 0.91796,-0.917969 z m 43.19922,0 c 0.52051,0 0.91797,0.397463 0.91797,0.917969 0,0.520506 -0.39746,0.917969 -0.91797,0.917969 -0.5205,0 -0.91797,-0.397463 -0.91797,-0.917969 0,-0.520506 0.39747,-0.917969 0.91797,-0.917969 z m -199.687497,0.07813 c -1.7460703,0 -3.1855468,1.439477 -3.1855468,3.185547 0,1.746071 1.4394765,3.185547 3.1855468,3.185547 1.74607,0 3.185547,-1.439477 3.185547,-3.185547 0,-1.74607 -1.439477,-3.185547 -3.185547,-3.185547 z m 7.201172,0 c -1.746071,-1e-6 -3.1875,1.439476 -3.1875,3.185547 0,1.746071 1.441429,3.185548 3.1875,3.185547 1.74607,0 3.185547,-1.439477 3.185547,-3.185547 0,-1.74607 -1.439477,-3.185547 -3.185547,-3.185547 z m 7.199219,0 c -1.74607,0 -3.185547,1.439477 -3.185547,3.185547 0,1.74607 1.439477,3.185547 3.185547,3.185547 1.74607,0 3.185547,-1.439477 3.185547,-3.185547 0,-1.74607 -1.439477,-3.185547 -3.185547,-3.185547 z m 7.199218,0 c -1.74607,0 -3.185546,1.439477 -3.185546,3.185547 0,1.74607 1.439476,3.185547 3.185546,3.185547 1.746071,0 3.1875,-1.439477 3.1875,-3.185547 0,-1.74607 -1.441429,-3.185547 -3.1875,-3.185547 z m 14.400391,0 c -1.74607,0 -3.185547,1.439477 -3.185547,3.185547 0,1.74607 1.439477,3.185547 3.185547,3.185547 0.239031,0 0.451139,-0.08761 0.675781,-0.138672 l 7.658204,11.4375 a 1.1339706,1.1339706 0 0 0 0.507812,0.523438 1.1339706,1.1339706 0 0 0 0.03711,0.01758 1.1339706,1.1339706 0 0 0 0.669922,0.105468 l 33.496094,0 a 1.1339706,1.1339706 0 0 0 0.488281,-0.04297 1.1339706,1.1339706 0 0 0 0.0078,-0.002 1.1339706,1.1339706 0 0 0 0.0293,-0.0098 1.1339706,1.1339706 0 0 0 0.0098,-0.0039 1.1339706,1.1339706 0 0 0 0.472657,-0.306641 l 8.568362,-7.167969 c 0.4579,0.25629 0.95661,0.441407 1.51367,0.441407 1.74607,0 3.1875,-1.439477 3.1875,-3.185547 0,-1.74607 -1.44143,-3.185547 -3.1875,-3.185547 -1.746072,-1e-6 -3.185548,1.439476 -3.185548,3.185547 0,0.358478 0.09547,0.690822 0.207031,1.013672 l -8.365234,6.996093 -32.814453,0 -7.416016,-11.078125 c 0.363685,-0.517447 0.625,-1.111345 0.625,-1.785156 0,-1.74607 -1.439477,-3.185547 -3.185547,-3.185547 z m 7.201172,0 c -1.74607,0 -3.1875,1.439477 -3.1875,3.185547 0,1.74607 1.44143,3.185547 3.1875,3.185547 1.74607,0 3.185547,-1.439477 3.185547,-3.185547 0,-1.74607 -1.439477,-3.185547 -3.185547,-3.185547 z m 21.599609,0 c -1.74607,0 -3.185546,1.439477 -3.185546,3.185547 0,1.74607 1.439476,3.185547 3.185546,3.185547 1.746071,0 3.185547,-1.439477 3.185547,-3.185547 0,-1.74607 -1.439476,-3.185547 -3.185547,-3.185547 z m 14.400391,0 c -1.74607,0 -3.1875,1.439477 -3.1875,3.185547 0,1.74607 1.44143,3.185547 3.1875,3.185547 1.74607,0 3.185547,-1.439477 3.185547,-3.185547 0,-1.74607 -1.439477,-3.185547 -3.185547,-3.185547 z m -79.201172,2.267578 c 0.520506,0 0.917969,0.397463 0.917969,0.917969 0,0.520506 -0.397463,0.917969 -0.917969,0.917969 -0.520506,0 -0.917969,-0.397462 -0.917969,-0.917969 0,-0.520506 0.397463,-0.917969 0.917969,-0.917969 z m 7.201172,0 c 0.520506,0 0.917969,0.397463 0.917969,0.917969 0,0.520506 -0.397463,0.917969 -0.917969,0.917969 -0.520507,0 -0.919922,-0.397462 -0.919922,-0.917969 0,-0.520506 0.399415,-0.917969 0.919922,-0.917969 z m 7.199219,0 c 0.520506,0 0.917968,0.397463 0.917968,0.917969 0,0.520506 -0.397462,0.917969 -0.917968,0.917969 -0.520507,0 -0.917969,-0.397463 -0.917969,-0.917969 0,-0.520506 0.397462,-0.917969 0.917969,-0.917969 z m 7.199218,0 c 0.520507,0 0.917969,0.397463 0.917969,0.917969 0,0.520506 -0.397462,0.917969 -0.917969,0.917969 -0.520506,0 -0.917968,-0.397463 -0.917968,-0.917969 0,-0.520506 0.397462,-0.917969 0.917968,-0.917969 z m 7.201172,0 c 0.520507,0 0.917969,0.397463 0.917969,0.917969 0,0.520506 -0.397462,0.917969 -0.917969,0.917969 -0.520506,0 -0.917968,-0.397463 -0.917968,-0.917969 0,-0.520506 0.397462,-0.917969 0.917968,-0.917969 z m 7.199219,0 c 0.520506,0 0.917969,0.397463 0.917969,0.917969 0,0.520506 -0.397463,0.917969 -0.917969,0.917969 -0.520506,0 -0.917969,-0.397463 -0.917969,-0.917969 0,-0.520506 0.397463,-0.917969 0.917969,-0.917969 z m 7.201172,0 c 0.520506,0 0.917969,0.397463 0.917969,0.917969 0,0.520506 -0.397463,0.917969 -0.917969,0.917969 -0.520506,0 -0.919922,-0.397463 -0.919922,-0.917969 0,-0.520506 0.399416,-0.917969 0.919922,-0.917969 z m 7.199219,0 c 0.520506,0 0.917968,0.397463 0.917968,0.917969 0,0.520506 -0.397462,0.917969 -0.917968,0.917969 -0.520507,0 -0.917969,-0.397463 -0.917969,-0.917969 0,-0.520506 0.397462,-0.917969 0.917969,-0.917969 z m 7.199218,0 c 0.520507,0 0.917969,0.397463 0.917969,0.917969 0,0.520506 -0.397462,0.917969 -0.917969,0.917969 -0.520506,0 -0.917968,-0.397463 -0.917968,-0.917969 0,-0.520506 0.397462,-0.917969 0.917968,-0.917969 z m 7.201172,0 c 0.520507,0 0.917969,0.397463 0.917969,0.917969 0,0.520506 -0.397462,0.917969 -0.917969,0.917969 -0.520506,0 -0.917968,-0.397463 -0.917968,-0.917969 0,-0.520506 0.397462,-0.917969 0.917968,-0.917969 z m 7.199219,0 c 0.520506,0 0.917969,0.397463 0.917969,0.917969 0,0.520506 -0.397463,0.917969 -0.917969,0.917969 -0.520506,0 -0.917969,-0.397463 -0.917969,-0.917969 0,-0.520506 0.397463,-0.917969 0.917969,-0.917969 z m 7.201172,0 c 0.520506,0 0.917969,0.397463 0.917969,0.917969 0,0.520506 -0.397463,0.917969 -0.917969,0.917969 -0.520506,0 -0.919922,-0.397463 -0.919922,-0.917969 0,-0.520506 0.399416,-0.917969 0.919922,-0.917969 z M 4.2714844,20.791016 c -1.7460703,0 -3.1855469,1.439476 -3.1855469,3.185546 0,1.746071 1.4394766,3.1875 3.1855469,3.1875 1.7460703,10e-7 3.1855469,-1.441429 3.1855468,-3.1875 10e-8,-1.74607 -1.4394765,-3.185546 -3.1855468,-3.185546 z M 144.80664,22.044922 c -1.74607,0 -3.18555,1.439477 -3.18555,3.185547 0,1.74607 1.43948,3.185547 3.18555,3.185547 1.00154,0 1.86314,-0.502834 2.44922,-1.236328 l 17.56055,5.46289 c 0.11577,1.644452 1.47109,2.974609 3.14257,2.97461 1.74607,-10e-7 3.18555,-1.439477 3.18555,-3.185547 0,-1.746071 -1.43948,-3.185547 -3.18555,-3.185547 -1.00153,0 -1.86313,0.502833 -2.44921,1.236328 l -17.56055,-5.462891 c -0.11578,-1.644451 -1.4711,-2.974609 -3.14258,-2.974609 z m 66.35156,0 c -1.74607,0 -3.18554,1.439477 -3.18554,3.185547 0,1.74607 1.43947,3.185547 3.18554,3.185547 1.74607,0 3.18555,-1.439477 3.18555,-3.185547 0,-1.74607 -1.43948,-3.185547 -3.18555,-3.185547 z M 4.2714844,23.058594 c 0.5205064,0 0.9179687,0.397462 0.9179687,0.917968 0,0.520507 -0.3974623,0.917969 -0.9179687,0.917969 -0.5205064,0 -0.9179688,-0.397462 -0.9179688,-0.917969 0,-0.520506 0.3974624,-0.917968 0.9179688,-0.917968 z M 101.60547,24.3125 c 0.52051,0 0.91992,0.397462 0.91992,0.917969 0,0.520506 -0.39941,0.917969 -0.91992,0.917969 -0.52051,0 -0.91797,-0.397463 -0.91797,-0.917969 0,-0.520507 0.39746,-0.917969 0.91797,-0.917969 z m 43.20117,0 c 0.52051,0 0.91797,0.397462 0.91797,0.917969 0,0.520506 -0.39746,0.917969 -0.91797,0.917969 -0.52051,0 -0.91797,-0.397463 -0.91797,-0.917969 0,-0.520507 0.39746,-0.917969 0.91797,-0.917969 z m 23.15234,0 c 0.52051,0 0.91797,0.397462 0.91797,0.917969 0,0.520506 -0.39746,0.917969 -0.91797,0.917969 -0.5205,0 -0.91796,-0.397463 -0.91796,-0.917969 0,-0.520507 0.39746,-0.917969 0.91796,-0.917969 z m 43.19922,0 c 0.52051,0 0.91797,0.397462 0.91797,0.917969 0,0.520506 -0.39746,0.917969 -0.91797,0.917969 -0.5205,0 -0.91797,-0.397463 -0.91797,-0.917969 0,-0.520507 0.39747,-0.917969 0.91797,-0.917969 z M 4.2714844,27.992188 c -1.7460703,0 -3.1855469,1.439476 -3.1855469,3.185546 -9e-7,1.746071 1.439476,3.185547 3.1855469,3.185547 1.7460709,0 3.1855477,-1.439476 3.1855468,-3.185547 10e-8,-1.74607 -1.4394765,-3.185547 -3.1855468,-3.185546 z m 97.3339856,1.253906 c -1.746072,-1e-6 -3.185548,1.439476 -3.185548,3.185547 0,1.345521 0.861466,2.492005 2.052738,2.955078 l 0,12.378906 -81.621098,0 a 1.1339706,1.1339706 0 0 0 -0.990234,0.324219 1.1339706,1.1339706 0 0 0 -0.0098,0.0098 1.1339706,1.1339706 0 0 0 -0.01953,0.02344 1.1339706,1.1339706 0 0 0 -0.06055,0.06836 1.1339706,1.1339706 0 0 0 -0.234375,0.886719 l 0,11.546875 c -1.190146,0.463636 -2.052734,1.608413 -2.052734,2.953125 0,1.342734 0.859468,2.488117 2.046875,2.953125 l -0.109375,44.80273 c -1.099523,0.48303 -1.986328,1.37462 -1.986328,2.64258 0,1.26563 0.88416,2.15621 1.980469,2.64063 l 0,0.76172 -2.664063,0 0,1.13476 0,6.46094 7.595703,0 0,-7.5957 -2.664062,0 0,-0.76172 c 1.096737,-0.48423 1.980468,-1.37469 1.980468,-2.64063 10e-7,-1.26386 -0.880729,-2.15321 -1.974609,-2.63867 l 0.109375,-44.804687 c 1.194024,-0.461682 2.058594,-1.607568 2.058594,-2.955078 0,-1.34551 -0.861482,-2.491998 -2.052734,-2.955078 l 0,-10.589844 80.667972,0 0,21.25 -9.386722,11.132813 C 90.787066,82.319282 90.567324,82.0625 90.238281,82.0625 c -1.706305,0 -3.113281,1.408929 -3.113281,3.115234 -10e-7,1.706307 1.406975,3.113282 3.113281,3.113282 1.706307,0 3.115235,-1.406975 3.115235,-3.113282 0,-0.502795 -0.324951,-0.872378 -0.541016,-1.294922 l 9.55273,-11.326171 a 1.1339706,1.1339706 0 0 0 0.28907,-0.41211 1.1339706,1.1339706 0 0 0 0.0254,-0.06641 1.1339706,1.1339706 0 0 0 0.0605,-0.529297 l 0,-22.46875 a 1.1339706,1.1339706 0 0 0 0,-0.359375 l 0,-13.335937 c 1.19017,-0.463629 2.05274,-1.608403 2.05274,-2.953125 0,-1.746071 -1.44143,-3.185547 -3.1875,-3.185547 z M 4.2714844,30.259766 c 0.5205064,0 0.9179687,0.397462 0.9179687,0.917968 3e-7,0.520507 -0.3974621,0.917969 -0.9179687,0.917969 -0.5205066,0 -0.917969,-0.397462 -0.9179688,-0.917969 0,-0.520506 0.3974624,-0.917968 0.9179688,-0.917968 z m 97.3339856,1.253906 c 0.52051,0 0.91992,0.397462 0.91992,0.917969 0,0.520506 -0.39941,0.917968 -0.91992,0.917968 -0.52051,10e-7 -0.91797,-0.397462 -0.91797,-0.917968 0,-0.520507 0.39746,-0.917969 0.91797,-0.917969 z m 66.35351,0 c 0.52051,0 0.91797,0.397462 0.91797,0.917969 0,0.520506 -0.39746,0.917968 -0.91797,0.917968 -0.5205,0 -0.91796,-0.397462 -0.91796,-0.917968 0,-0.520507 0.39746,-0.917969 0.91796,-0.917969 z M 4.2714844,35.191406 c -1.7460703,0 -3.1855469,1.439477 -3.1855469,3.185547 0,1.74607 1.4394766,3.185547 3.1855469,3.185547 1.7460703,0 3.1855469,-1.439477 3.1855468,-3.185547 10e-8,-1.74607 -1.4394765,-3.185547 -3.1855468,-3.185547 z m 0,2.267578 c 0.5205064,0 0.9179687,0.397463 0.9179687,0.917969 0,0.520507 -0.3974623,0.917969 -0.9179687,0.917969 -0.5205064,0 -0.9179688,-0.397463 -0.9179688,-0.917969 0,-0.520506 0.3974624,-0.917969 0.9179688,-0.917969 z m 0,4.931641 c -1.7460703,0 -3.1855469,1.44143 -3.1855469,3.1875 0,1.74607 1.4394766,3.185547 3.1855469,3.185547 1.7460703,0 3.1855469,-1.439477 3.1855468,-3.185547 10e-8,-1.74607 -1.4394765,-3.1875 -3.1855468,-3.1875 z M 144.80664,43.644531 c -1.74607,0 -3.18555,1.439477 -3.18555,3.185547 0,1.746071 1.43948,3.1875 3.18555,3.1875 1.74607,0 3.18555,-1.441429 3.18555,-3.1875 0,-1.74607 -1.43948,-3.185547 -3.18555,-3.185547 z m 66.35156,0 c -1.74607,0 -3.18554,1.439477 -3.18554,3.185547 0,1.746071 1.43947,3.1875 3.18554,3.1875 1.74607,0 3.18555,-1.441429 3.18555,-3.1875 0,-1.74607 -1.43948,-3.185547 -3.18555,-3.185547 z M 4.2714844,44.658203 c 0.5205064,0 0.9179687,0.399416 0.9179687,0.919922 0,0.520506 -0.3974623,0.917969 -0.9179687,0.917969 -0.5205064,0 -0.9179688,-0.397463 -0.9179688,-0.917969 0,-0.520506 0.3974624,-0.919922 0.9179688,-0.919922 z M 144.80664,45.912109 c 0.52051,0 0.91797,0.397463 0.91797,0.917969 0,0.520507 -0.39746,0.919922 -0.91797,0.919922 -0.52051,0 -0.91797,-0.399415 -0.91797,-0.919922 0,-0.520506 0.39746,-0.917969 0.91797,-0.917969 z m 66.35156,0 c 0.52051,0 0.91797,0.397463 0.91797,0.917969 0,0.520507 -0.39746,0.919922 -0.91797,0.919922 -0.5205,0 -0.91797,-0.399415 -0.91797,-0.919922 0,-0.520506 0.39747,-0.917969 0.91797,-0.917969 z M 4.2714844,49.591797 c -1.7460703,0 -3.1855469,1.439477 -3.1855469,3.185547 0,1.74607 1.4394766,3.185547 3.1855469,3.185547 1.7460703,0 3.1855469,-1.439477 3.1855468,-3.185547 10e-8,-1.746071 -1.4394765,-3.185547 -3.1855468,-3.185547 z m 0,2.267578 c 0.5205064,0 0.9179687,0.397462 0.9179687,0.917969 0,0.520506 -0.3974623,0.917969 -0.9179687,0.917968 -0.5205064,0 -0.9179688,-0.397462 -0.9179688,-0.917968 0,-0.520507 0.3974624,-0.917969 0.9179688,-0.917969 z m 32.0390626,0.251953 c -1.74607,0 -3.185547,1.439477 -3.185547,3.185547 0,1.74607 1.439477,3.185547 3.185547,3.185547 1.74607,0 3.185547,-1.439477 3.185547,-3.185547 0,-1.74607 -1.439477,-3.185547 -3.185547,-3.185547 z m 7.201172,0 c -1.74607,0 -3.1875,1.439477 -3.1875,3.185547 0,1.74607 1.44143,3.185547 3.1875,3.185547 1.74607,0 3.185547,-1.439477 3.185547,-3.185547 0,-1.74607 -1.439477,-3.185547 -3.185547,-3.185547 z m 101.294921,1.001953 c 0.52051,0 0.91797,0.397463 0.91797,0.917969 0,0.520506 -0.39746,0.917969 -0.91797,0.917969 -0.52051,0 -0.91797,-0.397463 -0.91797,-0.917969 0,-0.520506 0.39746,-0.917969 0.91797,-0.917969 z m 66.35156,0 c 0.52051,0 0.91797,0.397463 0.91797,0.917969 0,0.520506 -0.39746,0.917969 -0.91797,0.917969 -0.5205,0 -0.91797,-0.397463 -0.91797,-0.917969 0,-0.520506 0.39747,-0.917969 0.91797,-0.917969 z M 36.310547,54.378906 c 0.520506,0 0.917969,0.397463 0.917969,0.917969 0,0.520506 -0.397463,0.917969 -0.917969,0.917969 -0.520506,0 -0.917969,-0.397463 -0.917969,-0.917969 0,-0.520506 0.397463,-0.917969 0.917969,-0.917969 z m 7.201172,0 c 0.520506,0 0.917969,0.397463 0.917969,0.917969 0,0.520506 -0.397463,0.917969 -0.917969,0.917969 -0.520507,0 -0.917969,-0.397463 -0.917969,-0.917969 0,-0.520506 0.397462,-0.917969 0.917969,-0.917969 z m -39.2402346,2.41211 c -1.7460703,0 -3.1855469,1.439476 -3.1855469,3.185546 0,1.746071 1.4394766,3.1875 3.1855469,3.1875 1.7460703,10e-7 3.1855469,-1.441429 3.1855468,-3.1875 10e-8,-1.74607 -1.4394765,-3.185546 -3.1855468,-3.185546 z m 0,2.267578 c 0.5205064,0 0.9179687,0.397462 0.9179687,0.917968 0,0.520507 -0.3974623,0.917969 -0.9179687,0.917969 -0.5205064,0 -0.9179688,-0.397462 -0.9179688,-0.917969 0,-0.520506 0.3974624,-0.917968 0.9179688,-0.917968 z m 7.1992186,1.332031 c -1.7460703,0 -3.1855468,1.44143 -3.1855468,3.1875 0,1.74607 1.4394765,3.185547 3.1855468,3.185547 1.74607,0 3.185547,-1.439477 3.185547,-3.185547 0,-1.74607 -1.439477,-3.1875 -3.185547,-3.1875 z m 14.400391,0 c -1.74607,0 -3.185547,1.44143 -3.185547,3.1875 0,1.74607 1.439477,3.185547 3.185547,3.185547 1.74607,0 3.185547,-1.439477 3.185547,-3.185547 0,-1.74607 -1.439477,-3.1875 -3.185547,-3.1875 z m 14.40039,0 c -1.74607,0 -3.185546,1.44143 -3.185546,3.1875 0,1.74607 1.439476,3.185547 3.185546,3.185547 1.746071,0 3.185547,-1.439477 3.185547,-3.185547 0,-1.74607 -1.439476,-3.1875 -3.185547,-3.1875 z m 7.199219,0 c -1.74607,0 -3.185547,1.44143 -3.185547,3.1875 0,1.74607 1.439477,3.185547 3.185547,3.185547 1.74607,0 3.185547,-1.439477 3.185547,-3.185547 0,-1.74607 -1.439477,-3.1875 -3.185547,-3.1875 z m 7.201172,0 c -1.74607,0 -3.1875,1.44143 -3.1875,3.1875 0,1.74607 1.44143,3.185547 3.1875,3.185547 1.74607,0 3.185547,-1.439477 3.185547,-3.185547 0,-1.74607 -1.439477,-3.1875 -3.185547,-3.1875 z m 7.199219,0 c -1.74607,0 -3.185547,1.44143 -3.185547,3.1875 0,1.74607 1.439477,3.185547 3.185547,3.185547 1.74607,0 3.185547,-1.439477 3.185547,-3.185547 0,-1.74607 -1.439477,-3.1875 -3.185547,-3.1875 z m 7.199218,0 c -1.74607,0 -3.185546,1.44143 -3.185546,3.1875 0,0.47963 0.126527,0.92407 0.320312,1.333984 l -8.326172,8.619141 -7.355468,0 a 1.1339706,1.1339706 0 0 0 -0.580079,0.07031 1.1339706,1.1339706 0 0 0 -0.05273,0.02148 1.1339706,1.1339706 0 0 0 -0.458984,0.359375 l -8.082032,8.080078 -1.509765,0 -3.115235,0 0,1.134766 0,1.980468 0,3.113282 3.115235,0 3.113281,0 0,-3.113282 0,-1.511718 7.869141,-7.867188 7.373046,0 a 1.1339706,1.1339706 0 0 0 0.59375,-0.07813 1.1339706,1.1339706 0 0 0 0.01563,-0.0059 1.1339706,1.1339706 0 0 0 0.03516,-0.01563 1.1339706,1.1339706 0 0 0 0.0078,-0.0039 1.1339706,1.1339706 0 0 0 0.441406,-0.359374 l 8.533204,-8.833985 c 0.384717,0.166499 0.805535,0.261719 1.248046,0.261719 1.345511,0 2.491998,-0.861482 2.955079,-2.052734 l 1.291015,0 c 0.463073,1.191267 1.609557,2.052734 2.955078,2.052734 1.746071,0 3.185547,-1.439477 3.185547,-3.185547 0,-1.74607 -1.439476,-3.1875 -3.185547,-3.1875 -1.344722,0 -2.489496,0.862573 -2.953125,2.052734 l -1.294921,0 c -0.463637,-1.190146 -1.608414,-2.052734 -2.953126,-2.052734 z m 14.400391,0 c -1.74607,0 -3.185547,1.44143 -3.185547,3.1875 0,1.74607 1.439477,3.185547 3.185547,3.185547 1.74607,0 3.185547,-1.439477 3.185547,-3.185547 0,-1.74607 -1.439477,-3.1875 -3.185547,-3.1875 z m 7.201172,0 c -1.74607,0 -3.1875,1.44143 -3.1875,3.1875 0,1.74607 1.44143,3.185547 3.1875,3.185547 1.74607,0 3.185547,-1.439477 3.185547,-3.185547 0,-1.74607 -1.439477,-3.1875 -3.185547,-3.1875 z m -79.201172,2.267578 c 0.520506,0 0.917969,0.399416 0.917969,0.919922 0,0.520506 -0.397463,0.917969 -0.917969,0.917969 -0.520506,0 -0.917969,-0.397463 -0.917969,-0.917969 0,-0.520506 0.397463,-0.919922 0.917969,-0.919922 z m 7.201172,0 c 0.520506,0 0.917969,0.399416 0.917969,0.919922 0,0.520506 -0.397463,0.917969 -0.917969,0.917969 -0.520507,0 -0.919922,-0.397462 -0.919922,-0.917969 0,-0.520507 0.399415,-0.919922 0.919922,-0.919922 z m 7.199219,0 c 0.520506,0 0.917968,0.399416 0.917968,0.919922 0,0.520506 -0.397462,0.917969 -0.917968,0.917969 -0.520507,0 -0.917969,-0.397463 -0.917969,-0.917969 0,-0.520506 0.397462,-0.919922 0.917969,-0.919922 z m 7.199218,0 c 0.520507,0 0.917969,0.399416 0.917969,0.919922 0,0.520506 -0.397462,0.917969 -0.917969,0.917969 -0.520506,0 -0.917968,-0.397463 -0.917968,-0.917969 0,-0.520506 0.397462,-0.919922 0.917968,-0.919922 z m 7.201172,0 c 0.520507,0 0.917969,0.399416 0.917969,0.919922 0,0.520506 -0.397462,0.917969 -0.917969,0.917969 -0.520506,0 -0.917968,-0.397463 -0.917968,-0.917969 0,-0.520506 0.397462,-0.919922 0.917968,-0.919922 z m 7.199219,0 c 0.520506,0 0.917969,0.399416 0.917969,0.919922 0,0.520506 -0.397463,0.917969 -0.917969,0.917969 -0.520506,0 -0.917969,-0.397463 -0.917969,-0.917969 0,-0.520506 0.397463,-0.919922 0.917969,-0.919922 z m 7.201172,0 c 0.520506,0 0.917969,0.399416 0.917969,0.919922 0,0.520506 -0.397463,0.917969 -0.917969,0.917969 -0.520506,0 -0.919922,-0.397463 -0.919922,-0.917969 0,-0.520506 0.399416,-0.919922 0.919922,-0.919922 z m 7.199219,0 c 0.520506,0 0.917968,0.399416 0.917968,0.919922 0,0.520506 -0.397462,0.917969 -0.917968,0.917969 -0.520507,0 -0.917969,-0.397463 -0.917969,-0.917969 0,-0.520506 0.397462,-0.919922 0.917969,-0.919922 z m 7.199218,0 c 0.520507,0 0.917969,0.399416 0.917969,0.919922 0,0.520506 -0.397462,0.917969 -0.917969,0.917969 -0.520506,0 -0.917968,-0.397463 -0.917968,-0.917969 0,-0.520506 0.397462,-0.919922 0.917968,-0.919922 z m 7.201172,0 c 0.520507,0 0.917969,0.399416 0.917969,0.919922 0,0.520506 -0.397462,0.917969 -0.917969,0.917969 -0.520506,0 -0.917968,-0.397463 -0.917968,-0.917969 0,-0.520506 0.397462,-0.919922 0.917968,-0.919922 z m 7.199219,0 c 0.520506,0 0.917969,0.399416 0.917969,0.919922 0,0.520506 -0.397463,0.917969 -0.917969,0.917969 -0.520506,0 -0.917969,-0.397463 -0.917969,-0.917969 0,-0.520506 0.397463,-0.919922 0.917969,-0.919922 z m 7.201172,0 c 0.520506,0 0.917969,0.399416 0.917969,0.919922 0,0.520506 -0.397463,0.917969 -0.917969,0.917969 -0.520506,0 -0.919922,-0.397463 -0.919922,-0.917969 0,-0.520506 0.399416,-0.919922 0.919922,-0.919922 z m 10.933595,16.986328 c -1.746072,-10e-7 -3.185548,1.439476 -3.185548,3.185547 0,1.746071 1.439476,3.187501 3.185548,3.1875 1.74607,0 3.1875,-1.44143 3.1875,-3.1875 0,-1.74607 -1.44143,-3.185547 -3.1875,-3.185547 z m 43.20117,0 c -1.74607,0 -3.18555,1.439477 -3.18555,3.185547 0,1.74607 1.43948,3.1875 3.18555,3.1875 1.74607,0 3.18555,-1.44143 3.18555,-3.1875 0,-1.74607 -1.43948,-3.185547 -3.18555,-3.185547 z m 23.15234,0 c -1.74607,0 -3.18554,1.439477 -3.18554,3.185547 0,1.74607 1.43947,3.1875 3.18554,3.1875 1.74607,0 3.18555,-1.44143 3.18555,-3.1875 0,-1.74607 -1.43948,-3.185547 -3.18555,-3.185547 z m 43.19922,0 c -1.74607,0 -3.18554,1.439477 -3.18554,3.185547 0,1.74607 1.43947,3.1875 3.18554,3.1875 1.74607,0 3.18555,-1.44143 3.18555,-3.1875 0,-1.74607 -1.43948,-3.185547 -3.18555,-3.185547 z m -109.55273,2.267578 c 0.52051,0 0.91992,0.397463 0.91992,0.917969 0,0.520506 -0.39941,0.919922 -0.91992,0.919922 -0.52051,0 -0.91797,-0.399415 -0.91797,-0.919922 0,-0.520506 0.39746,-0.917969 0.91797,-0.917969 z m 43.20117,0 c 0.52051,0 0.91797,0.397463 0.91797,0.917969 0,0.520506 -0.39746,0.919922 -0.91797,0.919922 -0.52051,0 -0.91797,-0.399416 -0.91797,-0.919922 0,-0.520506 0.39746,-0.917969 0.91797,-0.917969 z m 23.15234,0 c 0.52051,0 0.91797,0.397463 0.91797,0.917969 0,0.520506 -0.39746,0.919922 -0.91797,0.919922 -0.5205,0 -0.91796,-0.399416 -0.91796,-0.919922 0,-0.520506 0.39746,-0.917969 0.91796,-0.917969 z m 43.19922,0 c 0.52051,0 0.91797,0.397463 0.91797,0.917969 0,0.520506 -0.39746,0.919922 -0.91797,0.919922 -0.5205,0 -0.91797,-0.399416 -0.91797,-0.919922 0,-0.520506 0.39747,-0.917969 0.91797,-0.917969 z M 47.039062,82.0625 c -1.706305,0 -3.113281,1.408929 -3.113281,3.115234 -10e-7,1.706307 1.406975,3.113282 3.113281,3.113282 1.706307,0 3.113283,-1.406975 3.113282,-3.113282 0,-1.706305 -1.406976,-3.115234 -3.113282,-3.115234 z m 7.199219,0 c -1.706305,0 -3.113281,1.408929 -3.113281,3.115234 -10e-7,1.706307 1.406975,3.113282 3.113281,3.113282 1.706307,0 3.115235,-1.406975 3.115235,-3.113282 0,-1.706305 -1.408929,-3.115234 -3.115235,-3.115234 z m 7.201172,0 c -1.706306,0 -3.115234,1.408929 -3.115234,3.115234 -10e-7,1.706307 1.408928,3.113282 3.115234,3.113282 1.706306,0 3.113282,-1.406975 3.113281,-3.113282 0,-1.706305 -1.406975,-3.115234 -3.113281,-3.115234 z m 7.199219,0 c -1.706306,0 -3.113281,1.408929 -3.113281,3.115234 -10e-7,1.706307 1.406975,3.113282 3.113281,3.113282 1.706306,0 3.113282,-1.406975 3.113281,-3.113282 0,-1.706305 -1.406975,-3.115234 -3.113281,-3.115234 z m 7.201172,0 c -1.706306,0 -3.115235,1.408929 -3.115235,3.115234 0,1.706307 1.408928,3.113282 3.115235,3.113282 1.706306,0 3.113282,-1.406975 3.113281,-3.113282 0,-1.706305 -1.406976,-3.115234 -3.113281,-3.115234 z m 7.199218,0 c -1.706305,0 -3.113281,1.408929 -3.113281,3.115234 -10e-7,1.706307 1.406975,3.113282 3.113281,3.113282 1.706307,0 3.113283,-1.406975 3.113282,-3.113282 0,-1.706305 -1.406976,-3.115234 -3.113282,-3.115234 z m -43.199218,2.269531 c 0.480742,0 0.845703,0.364962 0.845703,0.845703 0,0.480742 -0.364961,0.845704 -0.845703,0.845704 -0.480742,0 -0.847657,-0.364962 -0.847656,-0.845704 0,-0.480741 0.366914,-0.845703 0.847656,-0.845703 z m 7.199218,0 c 0.480742,0 0.845704,0.364962 0.845704,0.845703 0,0.480742 -0.364961,0.845704 -0.845704,0.845704 -0.480742,0 -0.845703,-0.364962 -0.845703,-0.845704 0,-0.480741 0.364962,-0.845703 0.845703,-0.845703 z m 7.199219,0 c 0.480742,0 0.847657,0.364962 0.847657,0.845703 0,0.480742 -0.366915,0.845704 -0.847657,0.845704 -0.480742,0 -0.845703,-0.364962 -0.845703,-0.845704 0,-0.480741 0.364961,-0.845703 0.845703,-0.845703 z m 7.201172,0 c 0.480742,0 0.845703,0.364962 0.845703,0.845703 0,0.480742 -0.364961,0.845704 -0.845703,0.845704 -0.480742,0 -0.845703,-0.364962 -0.845703,-0.845704 0,-0.480741 0.364961,-0.845703 0.845703,-0.845703 z m 7.199219,0 c 0.480742,0 0.845703,0.364962 0.845703,0.845703 0,0.480742 -0.364961,0.845704 -0.845703,0.845704 -0.480742,0 -0.845703,-0.364962 -0.845703,-0.845704 0,-0.480741 0.364961,-0.845703 0.845703,-0.845703 z m 7.201172,0 c 0.480742,0 0.845703,0.364962 0.845703,0.845703 0,0.480742 -0.364961,0.845704 -0.845703,0.845704 -0.480742,0 -0.847657,-0.364962 -0.847656,-0.845704 0,-0.480741 0.366914,-0.845703 0.847656,-0.845703 z m 7.199218,0 c 0.480742,0 0.845704,0.364962 0.845704,0.845703 0,0.480742 -0.364961,0.845704 -0.845704,0.845704 -0.480742,0 -0.845703,-0.364962 -0.845703,-0.845704 0,-0.480741 0.364962,-0.845703 0.845703,-0.845703 z m 7.199219,0 c 0.480742,0 0.847657,0.364962 0.847657,0.845703 0,0.480742 -0.366915,0.845704 -0.847657,0.845704 -0.480742,0 -0.845703,-0.364962 -0.845703,-0.845704 0,-0.480741 0.364961,-0.845703 0.845703,-0.845703 z m 11.367189,2.513672 c -1.746072,-10e-7 -3.185548,1.439476 -3.185548,3.185547 0,1.746071 1.439476,3.185548 3.185548,3.185547 1.74607,0 3.1875,-1.439477 3.1875,-3.185547 0,-1.74607 -1.44143,-3.185547 -3.1875,-3.185547 z m 43.20117,0 c -1.74607,0 -3.18555,1.439477 -3.18555,3.185547 0,1.74607 1.43948,3.185547 3.18555,3.185547 1.74607,0 3.18555,-1.439477 3.18555,-3.185547 0,-1.74607 -1.43948,-3.185547 -3.18555,-3.185547 z m 23.15234,0 c -1.74607,0 -3.18554,1.439477 -3.18554,3.185547 0,1.74607 1.43947,3.185547 3.18554,3.185547 1.74607,0 3.18555,-1.439477 3.18555,-3.185547 0,-1.74607 -1.43948,-3.185547 -3.18555,-3.185547 z m 43.19922,0 c -1.74607,0 -3.18554,1.439477 -3.18554,3.185547 0,1.74607 1.43947,3.185547 3.18554,3.185547 1.74607,0 3.18555,-1.439477 3.18555,-3.185547 0,-1.74607 -1.43948,-3.185547 -3.18555,-3.185547 z m -109.55273,2.267578 c 0.52051,0 0.91992,0.397463 0.91992,0.917969 0,0.520506 -0.39941,0.917969 -0.91992,0.917969 -0.52051,0 -0.91797,-0.397462 -0.91797,-0.917969 0,-0.520507 0.39746,-0.917969 0.91797,-0.917969 z m 43.20117,0 c 0.52051,0 0.91797,0.397463 0.91797,0.917969 0,0.520506 -0.39746,0.917969 -0.91797,0.917969 -0.52051,0 -0.91797,-0.397463 -0.91797,-0.917969 0,-0.520506 0.39746,-0.917969 0.91797,-0.917969 z m 23.15234,0 c 0.52051,0 0.91797,0.397463 0.91797,0.917969 0,0.520506 -0.39746,0.917969 -0.91797,0.917969 -0.5205,0 -0.91796,-0.397463 -0.91796,-0.917969 0,-0.520506 0.39746,-0.917969 0.91796,-0.917969 z m 43.19922,0 c 0.52051,0 0.91797,0.397463 0.91797,0.917969 0,0.520506 -0.39746,0.917969 -0.91797,0.917969 -0.5205,0 -0.91797,-0.397463 -0.91797,-0.917969 0,-0.520506 0.39747,-0.917969 0.91797,-0.917969 z m -66.35156,12.132809 c -1.74607,0 -3.18555,1.43948 -3.18555,3.18555 0,1.74607 1.43948,3.18555 3.18555,3.18555 1.33238,0 2.47522,-0.84255 2.94727,-2.01563 l 5.66211,0.0664 c 0.45622,1.22812 1.62035,2.12305 2.99804,2.12305 1.76595,0 3.22266,-1.45476 3.22266,-3.22071 0,-1.76595 -1.45671,-3.22265 -3.22266,-3.22265 -1.35203,0 -2.50809,0.85822 -2.98242,2.05078 l -5.66406,-0.0645 c -0.45431,-1.20837 -1.60308,-2.08789 -2.96094,-2.08789 z m 66.35156,0 c -1.74607,0 -3.18554,1.43948 -3.18554,3.18555 0,1.74607 1.43947,3.18555 3.18554,3.18555 1.33238,0 2.47522,-0.84255 2.94727,-2.01563 l 5.17773,0.0645 c 0.45573,1.22906 1.61968,2.125 2.99805,2.125 1.76595,0 3.22266,-1.45476 3.22266,-3.22071 0,-1.76595 -1.45671,-3.22265 -3.22266,-3.22265 -1.35204,0 -2.5081,0.85821 -2.98242,2.05078 l -5.17969,-0.0645 c -0.45431,-1.20837 -1.60307,-2.08789 -2.96094,-2.08789 z m -66.35156,2.26758 c 0.52051,0 0.91797,0.39746 0.91797,0.91797 0,0.52051 -0.39746,0.91797 -0.91797,0.91797 -0.52051,0 -0.91797,-0.39746 -0.91797,-0.91797 0,-0.52051 0.39746,-0.91797 0.91797,-0.91797 z m 66.35156,0 c 0.52051,0 0.91797,0.39746 0.91797,0.91797 0,0.52051 -0.39746,0.91797 -0.91797,0.91797 -0.5205,0 -0.91797,-0.39746 -0.91797,-0.91797 0,-0.52051 0.39747,-0.91797 0.91797,-0.91797 z m -54.74414,0.10156 c 0.54039,0 0.95508,0.41469 0.95508,0.95508 0,0.54039 -0.41469,0.95313 -0.95508,0.95313 -0.54039,0 -0.95508,-0.41274 -0.95508,-0.95313 0,-0.54039 0.41469,-0.95508 0.95508,-0.95508 z m 65.86719,0 c 0.54039,0 0.95508,0.41469 0.95508,0.95508 0,0.54039 -0.41469,0.95313 -0.95508,0.95313 -0.54039,0 -0.95312,-0.41274 -0.95313,-0.95313 10e-6,-0.54039 0.41274,-0.95508 0.95313,-0.95508 z m -182.441406,0.0488 c -1.706306,0 -3.115235,1.40698 -3.115235,3.11328 0,1.21558 0.823745,2.0745 1.851563,2.58594 l -0.248047,5.08203 a 1.1339706,1.1339706 0 0 0 0.283203,1.01758 1.1339706,1.1339706 0 0 0 0.06641,0.0664 1.1339706,1.1339706 0 0 0 0.05664,0.0488 1.1339706,1.1339706 0 0 0 1,0.22071 l 5.072266,-0.45508 c 0.529423,0.9734 1.367561,1.74805 2.542968,1.74805 0.52255,0 0.911039,-0.33033 1.345703,-0.5625 l 1.460938,1.18359 a 1.1339706,1.1339706 0 0 0 0.404297,0.26758 1.1339706,1.1339706 0 0 0 0.06641,0.0234 1.1339706,1.1339706 0 0 0 0.548828,0.0488 l 28.244141,-0.60742 c 0.481215,1.17831 1.634837,2.02344 2.976562,2.02344 1.765953,0 3.222657,-1.4567 3.222657,-3.22266 0,-1.76595 -1.456704,-3.22265 -3.222657,-3.22265 -1.388065,0 -2.555394,0.91177 -3.003906,2.15429 L 51.375,115.78125 50.130859,114.77344 c 0.08594,-0.28313 0.332032,-0.48749 0.332032,-0.79688 0,-1.7063 -1.406976,-3.11328 -3.113282,-3.11328 -1.360521,0 -2.323621,0.99499 -2.742187,2.22266 l -3.960938,0.35351 0.19336,-3.96679 c 1.168035,-0.45079 2.113281,-1.37773 2.113281,-2.69532 0,-1.7063 -1.406976,-3.11328 -3.113281,-3.11328 z m 7.199218,0 c -1.706305,0 -3.113281,1.40698 -3.113281,3.11328 0,1.70631 1.406976,3.11328 3.113281,3.11328 1.706306,0 3.113282,-1.40697 3.113282,-3.11328 0,-1.7063 -1.406976,-3.11328 -3.113282,-3.11328 z m 7.199219,0 c -1.706305,0 -3.113281,1.40698 -3.113281,3.11328 0,1.70631 1.406976,3.11328 3.113281,3.11328 1.706306,0 3.115235,-1.40697 3.115235,-3.11328 0,-1.7063 -1.408929,-3.11328 -3.115235,-3.11328 z m 7.201172,0 c -1.706306,0 -3.115234,1.40698 -3.115234,3.11328 0,1.70631 1.408928,3.11328 3.115234,3.11328 1.706306,0 3.113281,-1.40697 3.113281,-3.11328 0,-1.7063 -1.406975,-3.11328 -3.113281,-3.11328 z m 7.199219,0 c -1.706306,0 -3.113281,1.40698 -3.113281,3.11328 0,1.70631 1.406975,3.11328 3.113281,3.11328 1.706306,0 3.113281,-1.40697 3.113281,-3.11328 0,-1.7063 -1.406975,-3.11328 -3.113281,-3.11328 z m 7.201172,0 c -1.706306,0 -3.115235,1.40698 -3.115235,3.11328 0,1.70631 1.408929,3.11328 3.115235,3.11328 1.706305,0 3.113281,-1.40697 3.113281,-3.11328 0,-1.7063 -1.406976,-3.11328 -3.113281,-3.11328 z m 7.199218,0 c -1.706305,0 -3.113281,1.40698 -3.113281,3.11328 0,1.70631 1.406976,3.11328 3.113281,3.11328 1.706306,0 3.113282,-1.40697 3.113282,-3.11328 0,-1.7063 -1.406976,-3.11328 -3.113282,-3.11328 z m -43.199218,2.26758 c 0.480742,0 0.845703,0.36496 0.845703,0.8457 0,0.48075 -0.364961,0.84571 -0.845703,0.84571 -0.480742,0 -0.847656,-0.36496 -0.847656,-0.84571 0,-0.48074 0.366914,-0.8457 0.847656,-0.8457 z m 7.199218,0 c 0.480742,0 0.845704,0.36496 0.845704,0.8457 0,0.48075 -0.364962,0.84571 -0.845704,0.84571 -0.480741,0 -0.845703,-0.36496 -0.845703,-0.84571 0,-0.48074 0.364962,-0.8457 0.845703,-0.8457 z m 7.199219,0 c 0.480742,0 0.847657,0.36496 0.847657,0.8457 0,0.48075 -0.366915,0.84571 -0.847657,0.84571 -0.480742,0 -0.845703,-0.36496 -0.845703,-0.84571 0,-0.48074 0.364961,-0.8457 0.845703,-0.8457 z m 7.201172,0 c 0.480742,0 0.845703,0.36496 0.845703,0.8457 0,0.48075 -0.364961,0.84571 -0.845703,0.84571 -0.480742,0 -0.845703,-0.36496 -0.845703,-0.84571 0,-0.48074 0.364961,-0.8457 0.845703,-0.8457 z m 7.199219,0 c 0.480742,0 0.845703,0.36496 0.845703,0.8457 0,0.48075 -0.364961,0.84571 -0.845703,0.84571 -0.480742,0 -0.845703,-0.36496 -0.845703,-0.84571 0,-0.48074 0.364961,-0.8457 0.845703,-0.8457 z m 7.201172,0 c 0.480742,0 0.845703,0.36496 0.845703,0.8457 0,0.48075 -0.364961,0.84571 -0.845703,0.84571 -0.480742,0 -0.847656,-0.36496 -0.847656,-0.84571 0,-0.48074 0.366914,-0.8457 0.847656,-0.8457 z m 7.199218,0 c 0.480742,0 0.845704,0.36496 0.845704,0.8457 0,0.48075 -0.364962,0.84571 -0.845704,0.84571 -0.480741,0 -0.845703,-0.36496 -0.845703,-0.84571 0,-0.48074 0.364962,-0.8457 0.845703,-0.8457 z m 7.199219,0 c 0.480742,0 0.847657,0.36496 0.847657,0.8457 0,0.48075 -0.366915,0.84571 -0.847657,0.84571 -0.480742,0 -0.845703,-0.36496 -0.845703,-0.84571 0,-0.48074 0.364961,-0.8457 0.845703,-0.8457 z m 54.568359,2.51367 c -1.74607,0 -3.18555,1.43948 -3.18555,3.18555 0,1.74607 1.43948,3.18555 3.18555,3.18555 1.33238,0 2.47522,-0.84255 2.94727,-2.01563 l 5.66211,0.0664 c 0.45622,1.22812 1.62035,2.125 2.99804,2.125 1.76595,0 3.22266,-1.45671 3.22266,-3.22266 0,-1.76595 -1.45671,-3.22265 -3.22266,-3.22265 -1.35207,0 -2.50812,0.86011 -2.98242,2.05273 l -5.66406,-0.0664 c -0.45431,-1.20837 -1.60308,-2.08789 -2.96094,-2.08789 z m 66.35156,0 c -1.74607,0 -3.18554,1.43948 -3.18554,3.18555 0,1.74607 1.43947,3.18555 3.18554,3.18555 1.33238,0 2.47522,-0.84255 2.94727,-2.01563 l 5.17773,0.0644 c 0.45573,1.22907 1.61968,2.12696 2.99805,2.12696 1.76595,0 3.22266,-1.45671 3.22266,-3.22266 0,-1.76595 -1.45671,-3.22265 -3.22266,-3.22265 -1.35142,0 -2.50768,0.85907 -2.98242,2.05078 l -5.17969,-0.0645 c -0.45431,-1.20837 -1.60307,-2.08789 -2.96094,-2.08789 z m -66.35156,2.26758 c 0.52051,0 0.91797,0.39746 0.91797,0.91797 0,0.52051 -0.39746,0.91797 -0.91797,0.91797 -0.52051,0 -0.91797,-0.39746 -0.91797,-0.91797 0,-0.52051 0.39746,-0.91797 0.91797,-0.91797 z m 66.35156,0 c 0.52051,0 0.91797,0.39746 0.91797,0.91797 0,0.52051 -0.39746,0.91797 -0.91797,0.91797 -0.5205,0 -0.91797,-0.39746 -0.91797,-0.91797 0,-0.52051 0.39747,-0.91797 0.91797,-0.91797 z m -54.74414,0.10352 c 0.54039,0 0.95508,0.41273 0.95508,0.95312 0,0.54039 -0.41469,0.95508 -0.95508,0.95508 -0.54039,0 -0.95508,-0.41469 -0.95508,-0.95508 0,-0.54039 0.41469,-0.95312 0.95508,-0.95312 z m 65.86719,0 c 0.54039,0 0.95508,0.41273 0.95508,0.95312 0,0.54039 -0.41469,0.95508 -0.95508,0.95508 -0.54039,0 -0.95312,-0.41469 -0.95313,-0.95508 10e-6,-0.54039 0.41274,-0.95312 0.95313,-0.95312 z m -203.730469,2.31445 c 0.480742,0 0.845703,0.36496 0.845703,0.8457 0,0.48074 -0.364961,0.84571 -0.845703,0.84571 -0.480742,0 -0.847656,-0.36497 -0.847656,-0.84571 0,-0.48074 0.366914,-0.8457 0.847656,-0.8457 z m 28.798828,0 c 0.480742,0 0.845703,0.36496 0.845703,0.8457 0,0.48074 -0.364961,0.84571 -0.845703,0.84571 -0.480741,0 -0.845703,-0.36497 -0.845703,-0.84571 0,-0.48074 0.364962,-0.8457 0.845703,-0.8457 z m 35.046875,2.16016 c 0.540389,0 0.955078,0.41469 0.955078,0.95507 0,0.54039 -0.414689,0.95313 -0.955078,0.95313 -0.540388,0 -0.953125,-0.41274 -0.953125,-0.95313 0,-0.54038 0.412737,-0.95507 0.953125,-0.95507 z m 7.201172,0 c 0.540389,0 0.953125,0.41469 0.953125,0.95507 0,0.54039 -0.412736,0.95313 -0.953125,0.95313 -0.540388,0 -0.955078,-0.41274 -0.955078,-0.95313 0,-0.54038 0.41469,-0.95507 0.955078,-0.95507 z m 55.208984,0.35351 c -1.74607,0 -3.18555,1.43948 -3.18555,3.18555 0,1.74607 1.43948,3.1875 3.18555,3.1875 1.33238,0 2.47522,-0.8445 2.94727,-2.01758 l 5.66211,0.0664 c 0.45579,1.22893 1.61977,2.125 2.99804,2.125 1.76595,0 3.22266,-1.45671 3.22266,-3.22266 0,-1.76595 -1.45671,-3.2207 -3.22266,-3.2207 -1.35207,0 -2.50812,0.85816 -2.98242,2.05078 l -5.66406,-0.0664 c -0.45431,-1.20837 -1.60308,-2.08789 -2.96094,-2.08789 z m 66.35156,0 c -1.74607,0 -3.18554,1.43948 -3.18554,3.18555 0,1.74607 1.43947,3.1875 3.18554,3.1875 1.33172,0 2.47477,-0.84346 2.94727,-2.01563 l 5.17773,0.0645 c 0.45579,1.22895 1.61976,2.125 2.99805,2.125 1.76595,0 3.22266,-1.45671 3.22266,-3.22266 0,-1.76595 -1.45671,-3.2207 -3.22266,-3.2207 -1.35208,0 -2.50812,0.85815 -2.98242,2.05078 l -5.17969,-0.0644 c -0.45383,-1.2093 -1.60241,-2.08985 -2.96094,-2.08985 z m -109.55273,2.26758 c 0.52051,0 0.91992,0.39746 0.91992,0.91797 0,0.5205 -0.39941,0.91992 -0.91992,0.91992 -0.52051,0 -0.91797,-0.39942 -0.91797,-0.91992 0,-0.52051 0.39746,-0.91797 0.91797,-0.91797 z m 43.20117,0 c 0.52051,0 0.91797,0.39746 0.91797,0.91797 0,0.5205 -0.39746,0.91992 -0.91797,0.91992 -0.52051,0 -0.91797,-0.39942 -0.91797,-0.91992 0,-0.52051 0.39746,-0.91797 0.91797,-0.91797 z m 23.15234,0 c 0.52051,0 0.91797,0.39746 0.91797,0.91797 0,0.5205 -0.39746,0.91992 -0.91797,0.91992 -0.5205,0 -0.91796,-0.39942 -0.91796,-0.91992 0,-0.52051 0.39746,-0.91797 0.91796,-0.91797 z m 43.19922,0 c 0.52051,0 0.91797,0.39746 0.91797,0.91797 0,0.5205 -0.39746,0.91992 -0.91797,0.91992 -0.5205,0 -0.91797,-0.39942 -0.91797,-0.91992 0,-0.52051 0.39747,-0.91797 0.91797,-0.91797 z m -54.74414,0.10351 c 0.54039,1e-5 0.95508,0.41274 0.95508,0.95313 0,0.54039 -0.41469,0.95508 -0.95508,0.95508 -0.54039,0 -0.95508,-0.41469 -0.95508,-0.95508 0,-0.54039 0.41469,-0.95312 0.95508,-0.95313 z m 65.86719,0 c 0.54039,1e-5 0.95508,0.41274 0.95508,0.95313 0,0.54039 -0.41469,0.95508 -0.95508,0.95508 -0.54039,0 -0.95312,-0.41469 -0.95313,-0.95508 10e-6,-0.54039 0.41274,-0.95312 0.95313,-0.95313 z m -203.730469,2.85547 c 0.196536,0 0.200227,0.0321 0.232422,0.0684 0.03219,0.0362 0.07227,0.13025 0.07227,0.23828 0,0.10804 -0.04007,0.20011 -0.07227,0.23633 -0.0322,0.0362 -0.03589,0.0684 -0.232422,0.0684 -0.196535,0 -0.200227,-0.0321 -0.232422,-0.0684 -0.03219,-0.0362 -0.07422,-0.12829 -0.07422,-0.23633 0,-0.10803 0.04202,-0.20206 0.07422,-0.23828 0.03219,-0.0362 0.03589,-0.0684 0.232422,-0.0684 z m 83.054689,1.97461 c -1.746072,0 -3.185548,1.43948 -3.185548,3.18555 0,1.74607 1.439476,3.18555 3.185548,3.18555 1.74607,0 3.1875,-1.43948 3.1875,-3.18555 0,-1.74607 -1.44143,-3.18555 -3.1875,-3.18555 z m 40.01562,0 0,3.18555 0,3.18555 3.18555,0 3.18555,0 0,-1.13477 0,-0.87891 5.42383,0.0645 c 0.45622,1.22812 1.62035,2.12304 2.99804,2.12304 1.76595,0 3.22266,-1.45475 3.22266,-3.2207 0,-1.76595 -1.45671,-3.22265 -3.22266,-3.22265 -1.35207,0 -2.50812,0.86011 -2.98242,2.05273 l -5.43945,-0.0644 0,-2.08985 -3.18555,0 -3.18555,0 z m 26.33789,0 c -1.74607,0 -3.18554,1.43948 -3.18554,3.18555 0,1.74607 1.43947,3.18555 3.18554,3.18555 1.74607,0 3.18555,-1.43948 3.18555,-3.18555 0,-1.74607 -1.43948,-3.18555 -3.18555,-3.18555 z m 40.01368,0 0,3.18555 0,3.18555 3.18554,0 3.18555,0 0,-1.13477 0,-0.87695 4.93945,0.0605 c 0.45573,1.22907 1.61968,2.125 2.99805,2.125 1.76595,0 3.22266,-1.45475 3.22266,-3.2207 0,-1.76595 -1.45671,-3.22265 -3.22266,-3.22265 -1.35142,0 -2.50768,0.85907 -2.98242,2.05078 l -4.95508,-0.0625 0,-2.08985 -3.18555,0 -3.18554,0 z m -106.36719,2.26758 c 0.52051,0 0.91992,0.39746 0.91992,0.91797 0,0.52051 -0.39941,0.91797 -0.91992,0.91797 -0.52051,0 -0.91797,-0.39746 -0.91797,-0.91797 0,-0.52051 0.39746,-0.91797 0.91797,-0.91797 z m 43.20117,0 c 0.52051,0 0.91797,0.39746 0.91797,0.91797 0,0.52051 -0.39746,0.91797 -0.91797,0.91797 -0.52051,0 -0.91797,-0.39746 -0.91797,-0.91797 0,-0.52051 0.39746,-0.91797 0.91797,-0.91797 z m 23.15234,0 c 0.52051,0 0.91797,0.39746 0.91797,0.91797 0,0.52051 -0.39746,0.91797 -0.91797,0.91797 -0.5205,0 -0.91796,-0.39746 -0.91796,-0.91797 0,-0.52051 0.39746,-0.91797 0.91796,-0.91797 z m 43.19922,0 c 0.52051,0 0.91797,0.39746 0.91797,0.91797 0,0.52051 -0.39746,0.91797 -0.91797,0.91797 -0.5205,0 -0.91797,-0.39746 -0.91797,-0.91797 0,-0.52051 0.39747,-0.91797 0.91797,-0.91797 z m -54.74414,0.10156 c 0.54039,0 0.95508,0.41469 0.95508,0.95508 0,0.54039 -0.41469,0.95313 -0.95508,0.95313 -0.54039,0 -0.95508,-0.41274 -0.95508,-0.95313 0,-0.54039 0.41469,-0.95508 0.95508,-0.95508 z m 65.86719,0 c 0.54039,0 0.95508,0.41469 0.95508,0.95508 0,0.54039 -0.41469,0.95313 -0.95508,0.95313 -0.54039,0 -0.95312,-0.41274 -0.95313,-0.95313 10e-6,-0.54039 0.41274,-0.95508 0.95313,-0.95508 z m -203.730469,2.96485 c 0.520507,0 0.917969,0.39746 0.917969,0.91797 0,0.5205 -0.397462,0.91796 -0.917969,0.91796 -0.520506,0 -0.917969,-0.39746 -0.917969,-0.91796 0,-0.52051 0.397463,-0.91797 0.917969,-0.91797 z"
     id="line34661"
     inkscape:connector-curvature="0" />
</svg>
